<svg id="Layer_1" data-name="Layer 1" xmlns="http://www.w3.org/2000/svg" viewBox="0 0 537.592 586.899"><path d="M304.366,101.9a28.33,28.33,0,0,0-20.925,9.583c-5.311,5.729-8.474,12.646-10.895,19.94-3.3,9.946-5.34,20.229-7.881,30.374a20.819,20.819,0,0,1-11.305,14.119,65.426,65.426,0,0,1-8.231,3.442,53.01,53.01,0,0,0-10.246,4.393c-8.013,4.913-18.047,3.5-24.945-2.384-3.911-3.335-7.963-6.5-11.937-9.753a98.128,98.128,0,0,0-17.46-11.349c-6-3.075-12.216-5.491-20.274-5.576-4.268-.124-9.274,1.387-13.908,4.1a71.066,71.066,0,0,0-16.75,14.025c-6.245,6.913-12.707,13.629-19.08,20.425-3.441,3.67-7.282,7.041-10.26,11.053-6.994,9.423-7.332,19.9-3.412,30.6,3.185,8.694,8.646,16.134,13.9,23.648,3.271,4.677,6.874,9.131,9.082,14.471,1.856,4.492,2.68,9.154.943,13.779a233.673,233.673,0,0,1-10.6,24.565c-3.984,7.772-10.366,12.465-18.807,14.539-4.085,1-8.273,1.331-12.4,2.054-7.093,1.243-14.193,2.322-20.981,4.847-10.377,3.86-18.416,10.193-22.25,20.974a57.362,57.362,0,0,0-3.155,18.06c-.311,13.975.028,27.952.048,41.928a62.652,62.652,0,0,0,.161,7.442c1.347,11.2,8.052,18.9,16.957,24.768,8.878,5.851,19.015,8.429,29.546,9.2,11.131.816,20.292,5.191,27.3,13.984,5.161,6.479,7.968,14.038,10.663,21.742,2.956,8.448,1.326,16.126-2.95,23.521a150.546,150.546,0,0,1-9.958,15.033,107.942,107.942,0,0,0-9.8,14.923c-3.3,6.349-5.207,12.988-4.235,20.241,1.084,8.092,5.2,14.617,10.487,20.564,4.86,5.461,9.842,10.809,14.62,16.351a166.967,166.967,0,0,0,19.142,19.035c12.351,10.348,25.679,12.3,40.341,5.352,9.1-4.311,17.262-10.016,25.244-16.054,3.307-2.5,6.227-5.543,10.092-7.283,3.161-1.422,6.485-2.4,9.857-1.422,3.831,1.116,7.5,2.722,11.25,4.186,5.22,2.035,10.616,4.4,15.853,6.905a25.735,25.735,0,0,1,7.419,4.842c3.82,3.8,5.921,8.545,7.39,13.579,2.81,9.631,4.231,19.588,7.148,29.229a37.084,37.084,0,0,0,14.879,20.668c8.7,5.924,18.693,7.8,29.108,7.286,6.154-.3,12.293-.231,18.439.02,8.5.349,17,.639,25.462-.7q17.736-2.8,25.829-18.769a73.568,73.568,0,0,0,5.459-16.161c1.831-7.582,3.079-15.315,5.953-22.627,2.513-6.392,6.038-12.08,12.125-15.564a94.438,94.438,0,0,1,18.162-8.086c5.681-1.814,11.447-2.885,17.359-1.087a38.984,38.984,0,0,1,11.566,6.276c8.416,6.162,16.771,12.413,25.911,17.5,6.447,3.592,13.219,5.514,20.7,4.489,6.977-.956,13.025-3.979,18.6-8.042,8.874-6.473,16.421-14.34,23.573-22.637a161.315,161.315,0,0,1,14.292-14.684,28.306,28.306,0,0,0,8.585-13.26c3.733-12.867.3-24.285-7.667-34.529-4.686-6.023-10.5-11.046-15.727-16.6-12.344-13.106-25.3-25.622-37.678-38.711-12.5-13.219-25.523-25.928-38.094-39.085-13.555-14.186-27.681-27.823-41.093-42.153-2.239-2.392-2.526-4.1-.914-7.016a23.693,23.693,0,0,1,4.576-5.852c7.8-7.29,15.034-15.1,22.18-23.027,11.93-13.23,24.5-25.864,36.483-39.059,11.8-13.006,24.307-25.366,36.043-38.446,5.682-6.332,11.7-12.361,17.531-18.562,6.365-6.773,13.535-12.792,18.91-20.5a80.6,80.6,0,0,0,7.081-11.356c5.277-11.1,4.125-21.581-3.224-31.3-2.574-3.4-5.782-6.32-8.57-9.57-7.354-8.57-14.723-17.133-22.621-25.2a63.19,63.19,0,0,0-17.953-13.144c-8.5-4.047-17.164-4.736-25.9-.886a78.847,78.847,0,0,0-13.6,8.04c-5.416,3.83-10.1,8.581-15.642,12.248-7.216,4.775-14.708,8.407-23.782,7.429C423.02,185.9,412.3,181.4,404.38,171.237a38.623,38.623,0,0,1-8.129-19.1c-1.17-9.075-3-17.978-6.771-26.371C385.1,116.01,378.3,108.7,368.035,104.979a67.754,67.754,0,0,0-21.189-3.587C332.682,100.947,318.525,101.717,304.366,101.9ZM458.673,320.57c2.092,3.366,2.016,3.3-.592,6.3-11.518,13.258-23.805,25.829-35.242,39.15-8.538,9.945-17.778,19.2-26.877,28.6-.346.357-.724.688-1.031,1.076-2.384,3.01-2.4,3.23.247,6.037,8.855,9.4,18.1,18.416,27.187,27.586,4.593,4.634,9.412,9.053,13.854,13.824,6.305,6.773,13.079,13.065,19.584,19.63,1.567,1.581,1.12,3.271.154,4.742-2.176,3.317-4.506,6.538-6.867,9.729-14.6,19.733-33.4,34.226-55.337,45.045-17.242,8.5-35.426,12.922-54.469,14.372-3.352.255-6.7.263-9.86.359-20.459-.123-40.006-3.886-58.354-12.55-18.193-8.591-34.306-20.192-47.5-35.533-11.132-12.94-20.27-27.13-26.341-43.166a146.966,146.966,0,0,1-9.5-60.421,150.045,150.045,0,0,1,13.908-55.618,142.008,142.008,0,0,1,28.111-40.009c18.532-18.856,41.148-30.146,66.556-36.376,7.129-1.749,14.411-2.433,21.676-3.345a70.946,70.946,0,0,1,14.605-.427c12.671,1.03,25.242,2.759,37.479,6.467a161.421,161.421,0,0,1,58.421,31.5,168.938,168.938,0,0,1,29.576,32.1Q458.376,320.1,458.673,320.57ZM325.643,122.9c6.262.2,12.515.72,18.768,1.148a113.459,113.459,0,0,0,12.645.194c6.183-.267,12.3,4.675,14.894,10.853,3.887,9.253,5.218,19.086,7.193,28.785a71.1,71.1,0,0,0,5.426,16.937c3.819,7.9,10.235,12.937,17.809,16.81,7.365,3.766,15.272,6.228,22.829,9.525,3.933,1.716,7.841,3.393,12.158,3.934,8.409,1.052,15.946-1.486,23.116-5.511,6.847-3.843,12.951-8.759,19.2-13.465a143.567,143.567,0,0,1,13.367-9.144c5.845-3.446,11.467-2.9,17,.636,5.084,3.252,9.209,7.612,13.127,12.084A154.964,154.964,0,0,0,536.1,208.3a59.662,59.662,0,0,1,10.785,12.48c2.981,4.757,3.814,10.292-.786,15.416-1.241,1.383-2.25,2.973-3.46,4.386-3.029,3.539-6.137,7.009-9.169,10.545-9.39,10.951-20.236,20.49-30.043,31.033-8.282,8.9-16.425,17.938-24.932,26.631-1.731,1.769-2.594,1.9-4.222-.049-2.147-2.565-4.048-5.337-6.032-8.038-14.473-19.7-32.6-35.238-53.6-47.666-20.571-12.177-42.76-19.219-66.386-22.076a164.177,164.177,0,0,0-47.143,1.127c-17.588,2.956-34.395,8.388-49.92,17.185-18.067,10.236-34.256,22.946-47.346,39.2-7.781,9.66-14.973,19.778-20.588,30.924a157.454,157.454,0,0,0-14.2,41.579,164.9,164.9,0,0,0,5.952,82.843,186.777,186.777,0,0,0,17.723,38.252c9.194,15.4,20.94,28.555,34.327,40.41,16.46,14.578,35.335,24.631,56.284,30.972a149.93,149.93,0,0,0,33.849,5.919,216.886,216.886,0,0,0,22.342.459,153.317,153.317,0,0,0,75.816-23.348,147.458,147.458,0,0,0,15.05-10.315,333,333,0,0,0,40.146-37.693c.617-.692,1.2-1.415,1.83-2.1a1.466,1.466,0,0,1,2.511.118,29.923,29.923,0,0,0,3.218,3.593c10.628,10.711,20.924,21.742,31.4,32.6,10.649,11.035,21.455,21.909,32.244,32.8,5.6,5.653,5.48,13.749-.462,19.38-7.131,6.757-13.963,13.8-20.753,20.891-3.639,3.8-7.146,7.732-11.125,11.2-6.359,5.538-13.333,6.174-20.986,2.957-6.641-2.79-12.311-7.1-18.153-11.136-4.8-3.318-9.5-6.793-14.162-10.3-8.679-6.516-18.281-7.7-28.609-5.271-7.107,1.669-13.776,4.508-20.454,7.347-3.423,1.456-6.854,2.9-10.311,4.271-8.943,3.554-14.3,10.6-18.337,18.876-3.857,7.9-5.811,16.453-8.111,24.879-1.614,5.91-2.94,11.921-5.508,17.521-2.161,4.715-5.126,8.7-10.552,9.991-2.872.685-5.814.464-8.724.44-11.062-.092-22.124-.284-33.186-.39-2.851-.027-5.708.383-8.552-.128-7.071-1.27-11.431-5.843-14.457-11.972S284.9,641.3,283.43,634.714a147.377,147.377,0,0,0-6.135-21.428,32.545,32.545,0,0,0-3.213-6.075c-3.727-5.67-8.486-10.2-14.82-12.826-8.712-3.611-17-8.164-25.854-11.46-5.015-1.867-10.111-3.452-15.5-3.688-7.2-.315-13.608,2.243-19.736,5.723-6.445,3.661-12.166,8.374-18.291,12.5-3.177,2.14-6.245,4.42-9.342,6.669-6.664,4.838-14.164,4.884-21.269.436a36.81,36.81,0,0,1-7.766-7.123c-6.033-6.784-12.691-12.966-18.817-19.658-1.719-1.878-3.422-3.774-5.193-5.6-5.878-6.069-6.81-12.957-3.453-20.558,2.485-5.63,6.318-10.37,10.092-15.145,3.156-3.994,6.686-7.781,8.983-12.323,2.668-5.276,6.07-10.277,7.113-16.281,1.136-6.538.03-12.834-1.925-19.066-2.286-7.291-5.574-14.185-8.3-21.3-1.636-4.276-2.9-8.7-5.449-12.6a43.039,43.039,0,0,0-8.1-8.935c-7.3-6.312-16.223-8.858-25.277-11.061-8.063-1.961-16.211-3.578-24.269-5.56C60.607,427.8,55.9,424.3,54.327,417.571a24.313,24.313,0,0,1-.49-6.842c.456-8.826-.584-17.619-.651-26.433-.054-7.2-.047-14.423,2.2-21.394,1.664-5.17,4.855-8.709,10.27-10.32,7.4-2.2,15-3.29,22.588-4.5,8.283-1.321,16.525-2.757,24.093-6.641,4.907-2.517,9.461-5.792,11.843-10.727,6.053-12.54,13.194-24.592,17.374-38.006,4-12.845,1.679-24.653-5.56-35.656-4.054-6.162-8.472-12.082-12.6-18.194-3.068-4.539-5.831-9.264-6.523-14.861a12.113,12.113,0,0,1,3.478-10.585c5-4.914,9.713-10.09,14.459-15.24,5.726-6.213,11.425-12.463,18.556-17.16a30.469,30.469,0,0,1,6.308-3.168,13.411,13.411,0,0,1,13.363,1.922c7.381,5.477,14.734,10.991,22.137,16.437a87.982,87.982,0,0,0,13.736,8.549c8.379,4.053,16.988,3.977,25.768,1.666,9.7-2.554,18.757-6.781,27.968-10.64,6.013-2.519,11.442-5.63,15.512-10.842,3.844-4.921,6.19-10.548,8.023-16.446,2.543-8.178,4.135-16.594,6.271-24.872.88-3.414,1.9-6.8,3.042-10.135,1.611-4.725,5.373-7.157,9.87-8.58C311.964,122.813,318.812,122.68,325.643,122.9Z" transform="translate(-32.457 -101.255)" fill="#fbc510"/></svg>